<svg width="32" height="32" viewBox="0 0 133.33399963378906 133.33399963378906" version="1.1" xmlns="http://www.w3.org/2000/svg" xmlns:xlink="http://www.w3.org/1999/xlink" xml:space="preserve" xmlns:serif="http://www.serif.com/" style="fill-rule:evenodd;clip-rule:evenodd;stroke-linejoin:round;stroke-miterlimit:2;">
  <circle cx="66.667" cy="66.667" r="66.667" style="fill:#303030;"/>
    <circle cx="66.667" cy="66.667" r="58" style="fill:#94df03;"/>
    <path d="M64.095,56.337c-0.365,-3.156 -2.017,-6.888 -2.83,-9.971c-1.317,-6.023 -3.342,-10.046 -2.897,-15.024c0.462,-2.308 2.219,-7.625 4.918,-9.5c2.602,-1.573 8.853,-2.578 12.262,0.808c2.878,4.312 3.517,4.773 9.028,3.369c5.233,-1.127 10.283,2.723 12.532,6.67c1.039,2.372 1.049,4.091 0.741,6.333c-2.285,5.517 -10.729,12.11 -12.464,13.744c-3.12,2.13 -5.134,2.592 -7.559,4.221c-0.228,0.154 -1.936,1.762 -2.885,2.381c-0.422,0.322 -1.286,0.933 -1.145,1.752c0.153,0.645 1.066,1.122 1.576,0.777c1.488,-1.011 9.732,-3.571 9.732,-3.571c8.838,-2.737 13.285,-4.105 14.767,-4.01c2.223,0.135 7.088,0.441 9.842,4.192c2.628,3.578 2.587,9.271 0.113,12.288c-1.354,1.653 -2.89,1.833 -3.544,3.773c-0.645,1.917 0.445,2.949 0.862,5.48c0.917,5.559 -2.58,11.271 -5.712,12.996c-1.266,0.697 -2.67,1.022 -2.67,1.022c0,0 -1.752,0.404 -3.589,0.193c-1.837,-0.212 -3.584,-1.153 -8.788,-5.794c-3.394,-3.028 -5.091,-4.542 -5.853,-5.602c-1.744,-2.425 -2.258,-4.245 -4.776,-7.22c-1.02,-1.207 -2.147,-2.668 -2.591,-2.699c-0.444,-0.031 -2.258,1.175 -1.994,2.328c4.813,11.948 11.548,19.937 13.475,35.102c-0.843,1.499 -3.788,0.994 -5.255,1.28c-1.864,0.28 -3.227,1.954 -4.918,1.011c-2.686,-8.052 -2.381,-28.59 -7.007,-37.46c-0.935,0 -1.36,-0.089 -1.684,0c-0.741,0.202 0.212,5.63 0.606,9.615c0.709,7.163 1.094,11.044 -0.511,15.294c-0.79,2.089 -2.51,6.644 -6.905,8.17c-4.191,1.456 -9.622,-0.258 -11.776,-3.511c-1.18,-1.781 -0.9,-3.301 -2.565,-4.499c-1.643,-1.181 -2.949,-0.443 -5.49,-0.79c-5.583,-0.761 -10.012,-5.785 -10.737,-9.286c-0.294,-1.415 -0.19,-2.853 -0.19,-2.853c0,0 0.129,-1.793 0.876,-3.487c0.777,-1.768 2.271,-3.158 8.127,-6.69c3.975,-2.396 5.958,-3.595 7.074,-3.943c3.324,-1.036 6.333,-1.185 8.489,-2.229c0.108,-0.052 1.317,-0.657 2.228,-1.098c0.841,-0.404 1.454,-1.118 1.963,-1.901c0.657,-1.011 0.49,-1.434 -0.448,-1.469c-3.333,0.91 -6.891,0.59 -10.304,1.132c-7.007,1.112 -10.915,1.733 -15.294,0.358c-2.128,-0.668 -6.776,-2.127 -8.55,-6.43c-1.691,-4.102 -0.288,-9.621 2.836,-11.957c1.712,-1.28 3.246,-1.086 4.347,-2.816c1.086,-1.707 0.275,-2.969 0.477,-5.525c0.44,-5.622 5.205,-10.329 8.66,-11.252c1.396,-0.373 2.837,-0.352 2.837,-0.352c0,0 1.797,0.027 3.531,0.674c1.723,0.646 3.199,1.979 7.14,7.734c2.743,4.007 4.114,6.01 4.339,6.843c0,0 1.58,5.836 2.905,8.152c1.266,2.216 1.174,2.639 1.868,3.241c0.413,0.662 2.291,1.073 2.779,0.141" style="fill:#303030;fill-rule:nonzero;"/>
</svg>